<svg width="1200" height="800" viewBox="0 0 1200 800" fill="none" xmlns="http://www.w3.org/2000/svg">
  <rect width="1200" height="800" rx="48" fill="url(#bg)"/>
  <ellipse cx="610" cy="620" rx="228" ry="46" fill="#0F172A" fill-opacity="0.12"/>
  <path d="M402 256H818V508C818 568.751 768.751 618 708 618H512C451.249 618 402 568.751 402 508V256Z" fill="#FFF7ED"/>
  <path d="M402 306H818V504C818 566.856 766.856 618 704 618H516C453.144 618 402 566.856 402 504V306Z" fill="#C2410C"/>
  <path d="M818 320H908C948.869 320 982 353.131 982 394V432C982 472.869 948.869 506 908 506H818" stroke="#FFF7ED" stroke-width="28"/>
  <path d="M486 208C470 164 470 130 498 96" stroke="#FEF3C7" stroke-width="18" stroke-linecap="round"/>
  <path d="M596 184C580 140 580 106 608 72" stroke="#FEF3C7" stroke-width="18" stroke-linecap="round"/>
  <path d="M708 208C692 164 692 130 720 96" stroke="#FEF3C7" stroke-width="18" stroke-linecap="round"/>
  <circle cx="516" cy="394" r="16" fill="#FDBA74"/>
  <circle cx="610" cy="438" r="14" fill="#FED7AA"/>
  <circle cx="694" cy="380" r="20" fill="#FCD34D"/>
  <text x="200" y="706" fill="white" font-size="64" font-family="Arial, Helvetica, sans-serif" font-weight="700">CHAI TIME</text>
  <defs>
    <linearGradient id="bg" x1="106" y1="54" x2="1114" y2="744" gradientUnits="userSpaceOnUse">
      <stop stop-color="#0F766E"/>
      <stop offset="0.46" stop-color="#14B8A6"/>
      <stop offset="1" stop-color="#F59E0B"/>
    </linearGradient>
  </defs>
</svg>
